<svg width="24" height="24" viewBox="0 0 24 24" fill="none" xmlns="http://www.w3.org/2000/svg">
<g id="vuesax/linear/facebook">
<g id="facebook">
<path id="Vector" d="M13 9.3V12.2H15.6C15.8 12.2 15.9 12.4 15.9 12.6L15.5 14.5C15.5 14.6 15.3 14.7 15.2 14.7H13V22H10V14.8H8.3C8.1 14.8 8 14.7 8 14.5V12.6C8 12.4 8.1 12.3 8.3 12.3H10V9C10 7.3 11.3 6 13 6H15.7C15.9 6 16 6.1 16 6.3V8.7C16 8.9 15.9 9 15.7 9H13.3C13.1 9 13 9.1 13 9.3Z" fill="#242424"/>
<path id="Vector_2" d="M15 22H9C4 22 2 20 2 15V9C2 4 4 2 9 2H15C20 2 22 4 22 9V15C22 20 20 22 15 22Z" stroke="#242424" stroke-width="1.5" stroke-linecap="round" stroke-linejoin="round"/>
</g>
</g>
</svg>
