<svg width="115" height="32" viewBox="0 0 115 32" fill="none" xmlns="http://www.w3.org/2000/svg">
<g id="Logo">
<path id="Vector" d="M26.2353 10.6199C25.7665 9.45625 25.1461 8.37182 24.3929 7.39989C23.2797 5.92023 21.8903 4.71328 20.3164 3.85849C18.7425 3.00371 17.0196 2.52046 15.2612 2.44055C13.5029 2.36064 11.7489 2.68588 10.1146 3.39488C8.48038 4.10387 7.00299 5.18054 5.77969 6.55402C4.55638 7.92749 3.61488 9.56664 3.01717 11.3636C2.41946 13.1605 2.17908 15.0745 2.31186 16.9795C2.44465 18.8846 2.94757 20.7375 3.78754 22.4163C4.62751 24.0952 5.78548 25.5619 7.18524 26.7199C8.08339 27.4778 9.07583 28.0939 10.133 28.5499C11.6152 29.2093 13.2016 29.5489 14.8034 29.5499C18.1099 29.542 21.2786 28.1112 23.615 25.5712C25.9513 23.0312 27.2646 19.5893 27.267 15.9999C27.2694 14.1484 26.9181 12.3165 26.2353 10.6199ZM14.7942 5.18988C16.2327 5.18972 17.6538 5.53102 18.9579 6.18988C18.6399 6.33905 18.3056 6.44324 17.9631 6.49989C16.8361 6.67698 15.7921 7.24496 14.9869 8.11906C14.1817 8.99315 13.6585 10.1265 13.4953 11.3499C13.4238 12.036 13.1363 12.6743 12.6815 13.1571C12.2267 13.6399 11.6324 13.9375 10.9989 13.9999C9.87195 14.177 8.82794 14.745 8.02275 15.6191C7.21755 16.4932 6.69433 17.6265 6.5312 18.8499C6.47596 19.5023 6.21955 20.1154 5.80346 20.5899C5.08554 18.9432 4.76303 17.126 4.86595 15.3076C4.96886 13.4892 5.49385 11.7286 6.39207 10.1896C7.29028 8.65068 8.53253 7.3834 10.0032 6.50573C11.4739 5.62806 13.1252 5.16853 14.8034 5.16988L14.7942 5.18988ZM7.17603 22.9999C7.28657 22.8899 7.39711 22.7899 7.50765 22.6699C8.32718 21.8074 8.85323 20.6688 8.99997 19.4399C9.05946 18.7491 9.34356 18.1039 9.80139 17.6199C10.242 17.1221 10.835 16.8162 11.4687 16.7599C12.5957 16.5828 13.6397 16.0148 14.4449 15.1407C15.2501 14.2666 15.7733 13.1333 15.9365 11.9099C15.9763 11.1874 16.2619 10.5067 16.7379 9.99989C17.1894 9.51174 17.7879 9.21699 18.4237 9.16988C19.459 9.01525 20.4246 8.5156 21.1872 7.73989C22.0556 8.52196 22.7913 9.46278 23.3612 10.5199C23.3262 10.5712 23.286 10.6182 23.2414 10.6599C22.8018 11.1621 22.2095 11.4747 21.5741 11.5399C20.4459 11.7139 19.4004 12.2809 18.5946 13.1555C17.789 14.0302 17.2666 15.1652 17.1064 16.3899C17.0414 17.0783 16.7593 17.7212 16.3077 18.2096C15.856 18.6981 15.2628 19.002 14.6284 19.0699C13.4981 19.2456 12.4502 19.8125 11.6403 20.6862C10.8305 21.56 10.3019 22.694 10.133 23.9199C10.0835 24.4086 9.92879 24.8779 9.68163 25.2899C8.7365 24.6807 7.89002 23.9071 7.17603 22.9999ZM14.7942 26.8599C13.8595 26.861 12.9292 26.7196 12.0306 26.4399C12.338 25.8179 12.5379 25.14 12.6202 24.4399C12.6848 23.753 12.9656 23.1113 13.4154 22.6231C13.8651 22.1349 14.4562 21.83 15.089 21.7599C16.2176 21.5848 17.2637 21.0177 18.0707 20.1434C18.8777 19.2692 19.4023 18.1347 19.5659 16.9099C19.6305 16.223 19.9114 15.5813 20.3611 15.0931C20.8108 14.6049 21.4019 14.3 22.0347 14.2299C22.884 14.11 23.6936 13.7667 24.3929 13.2299C24.7813 14.8278 24.8272 16.501 24.5274 18.1212C24.2276 19.7414 23.5897 21.2656 22.663 22.5767C21.7363 23.8877 20.5453 24.951 19.1812 25.6848C17.8172 26.4186 16.3165 26.8035 14.7942 26.8099V26.8599Z" fill="white"/>
<path id="Vector_2" d="M30 8.81969H32.7635V20.9497H30V8.81969ZM33.8598 16.3697C33.8598 13.3697 35.5547 11.5797 38.1709 11.5797C40.787 11.5797 42.482 13.3697 42.482 16.3697C42.482 19.3697 40.8239 21.1697 38.1709 21.1697C35.5179 21.1697 33.8598 19.4197 33.8598 16.3697ZM39.7093 16.3697C39.7093 14.7197 39.1105 13.7497 38.1709 13.7497C37.2313 13.7497 36.6417 14.7497 36.6417 16.3697C36.6417 17.9897 37.2221 18.9697 38.1709 18.9697C39.1197 18.9697 39.7093 18.0497 39.7093 16.3797V16.3697ZM43.523 21.5397H46.176C46.3023 21.8442 46.5157 22.0963 46.7846 22.2585C47.0535 22.4206 47.3635 22.4842 47.6683 22.4397C48.7184 22.4397 49.2711 21.8197 49.2711 20.9197V19.2397H49.2159C48.9957 19.7546 48.6384 20.186 48.1901 20.4784C47.7419 20.7707 47.2232 20.9105 46.701 20.8797C44.6836 20.8797 43.3479 19.2097 43.3479 16.3397C43.3479 13.4697 44.6192 11.6597 46.7379 11.6597C47.2764 11.6368 47.8085 11.7931 48.2629 12.1076C48.7173 12.4222 49.0723 12.88 49.2803 13.4197V11.7497H52.0439V20.8497C52.0439 23.0397 50.266 24.3997 47.6406 24.3997C45.1995 24.3997 43.6796 23.2097 43.523 21.5497V21.5397ZM49.2803 16.3597C49.2803 14.8997 48.6632 13.9797 47.6867 13.9797C46.7102 13.9797 46.1115 14.8897 46.1115 16.3597C46.1115 17.8297 46.701 18.6597 47.6867 18.6597C48.6724 18.6597 49.2803 17.8497 49.2803 16.3697V16.3597ZM53.0848 16.3597C53.0848 13.3597 54.7798 11.5697 57.396 11.5697C60.0121 11.5697 61.7163 13.3597 61.7163 16.3597C61.7163 19.3597 60.0582 21.1597 57.396 21.1597C54.7337 21.1597 53.0848 19.4197 53.0848 16.3697V16.3597ZM58.9343 16.3597C58.9343 14.7097 58.3356 13.7397 57.396 13.7397C56.4564 13.7397 55.9129 14.7497 55.9129 16.3797C55.9129 18.0097 56.4932 18.9797 57.4328 18.9797C58.3724 18.9797 58.9343 18.0497 58.9343 16.3797V16.3597ZM62.7665 9.56969C62.7592 9.26679 62.835 8.96839 62.9841 8.71231C63.1334 8.45621 63.3492 8.25396 63.6044 8.1312C63.8595 8.00844 64.1425 7.9707 64.4175 8.02275C64.6925 8.07481 64.947 8.21431 65.1488 8.42358C65.3507 8.63286 65.4908 8.90249 65.5513 9.19829C65.6118 9.49409 65.5901 9.80269 65.4887 10.0851C65.3875 10.3674 65.2113 10.6108 64.9824 10.7843C64.7537 10.9578 64.4825 11.0537 64.2035 11.0597C64.0185 11.0735 63.8329 11.0456 63.6583 10.9778C63.4837 10.91 63.324 10.8038 63.189 10.6657C63.054 10.5277 62.9468 10.3608 62.8741 10.1756C62.8014 9.9905 62.7647 9.79099 62.7665 9.58969V9.56969ZM62.7665 11.7697H65.53V20.9497H62.7665V11.7697ZM75.5617 16.3597C75.5617 19.3597 74.3365 21.0697 72.2362 21.0697C71.6977 21.1072 71.1615 20.9643 70.7001 20.6603C70.2388 20.3562 69.8747 19.9057 69.6569 19.3697H69.6016V23.8897H66.8381V11.7497H69.6016V13.3897H69.6569C69.8645 12.8448 70.2218 12.3826 70.68 12.0659C71.1382 11.7492 71.6751 11.5934 72.2178 11.6197C74.3365 11.6597 75.5985 13.3797 75.5985 16.3797L75.5617 16.3597ZM72.7981 16.3597C72.7981 14.8997 72.1809 13.9697 71.2137 13.9697C70.2465 13.9697 69.6293 14.9097 69.62 16.3597C69.6108 17.8097 70.2465 18.7397 71.2137 18.7397C72.1809 18.7397 72.7981 17.8297 72.7981 16.3797V16.3597ZM80.3058 11.5597C82.5995 11.5597 83.9905 12.7397 84.055 14.6297H81.5401C81.5401 13.9797 81.0427 13.5697 80.2781 13.5697C79.5135 13.5697 79.1727 13.8897 79.1727 14.3597C79.1727 14.8297 79.4767 14.9797 80.0939 15.1197L81.8626 15.5097C83.5483 15.8997 84.2668 16.6397 84.2668 18.0297C84.2668 19.9297 82.6732 21.1497 80.3242 21.1497C77.9752 21.1497 76.4368 19.9297 76.317 18.0597H78.9793C79.0622 18.7397 79.5596 19.1397 80.3703 19.1397C81.1809 19.1397 81.5494 18.8497 81.5494 18.3697C81.5494 17.8897 81.2914 17.7897 80.6282 17.6397L79.0345 17.2697C77.3856 16.8997 76.5197 15.9497 76.5197 14.5497C76.5381 12.7497 78.0212 11.5797 80.3058 11.5797V11.5597ZM93.4879 20.9297H90.8257V19.2197H90.7704C90.6239 19.7938 90.3015 20.2963 89.8557 20.6438C89.4098 20.9912 88.8682 21.1627 88.32 21.1297C87.9002 21.1556 87.4801 21.0834 87.0882 20.9179C86.6962 20.7524 86.3415 20.4976 86.0481 20.1705C85.7547 19.8435 85.5293 19.4518 85.3874 19.0221C85.2453 18.5924 85.19 18.1346 85.2249 17.6797V11.7497H87.9884V16.9897C87.9884 18.0797 88.5043 18.6597 89.361 18.6597C89.5618 18.6601 89.7608 18.614 89.9441 18.5243C90.1265 18.4346 90.2905 18.3034 90.4231 18.1396C90.5548 17.9757 90.6543 17.783 90.7124 17.5744C90.7704 17.3657 90.7879 17.1459 90.7612 16.9297V11.7497H93.5247L93.4879 20.9297ZM94.8236 11.7497H97.495V13.5197H97.5503C97.6968 12.9532 98.0127 12.4554 98.4475 12.1044C98.8823 11.7534 99.4129 11.5688 99.9546 11.5797C100.506 11.5318 101.054 11.7109 101.489 12.0815C101.924 12.4521 102.215 12.9869 102.304 13.5797H102.359C102.526 12.9806 102.872 12.459 103.343 12.0969C103.812 11.7348 104.381 11.5528 104.957 11.5797C105.332 11.566 105.706 11.6383 106.055 11.7919C106.404 11.9454 106.718 12.1769 106.979 12.4711C107.239 12.7654 107.44 13.1159 107.568 13.4998C107.695 13.8837 107.748 14.2926 107.72 14.6997V20.9497H104.957V15.4997C104.957 14.4997 104.542 14.0397 103.768 14.0397C103.596 14.0381 103.425 14.0767 103.267 14.1529C103.11 14.2291 102.969 14.3411 102.854 14.4814C102.74 14.6217 102.655 14.7869 102.604 14.966C102.553 15.1452 102.539 15.334 102.562 15.5197V20.9497H99.9362V15.4597C99.9362 14.5397 99.5216 14.0397 98.7663 14.0397C98.5921 14.0398 98.419 14.08 98.2605 14.1577C98.1012 14.2355 97.9584 14.349 97.8432 14.4907C97.7272 14.6324 97.6406 14.7992 97.5881 14.9801C97.5365 15.1609 97.5199 15.3516 97.5411 15.5397V20.9497H94.7775L94.8236 11.7497Z" fill="white"/>
</g>
</svg>
